<svg xmlns="http://www.w3.org/2000/svg" viewBox="0 0 80 80">
    <path style="line-height:normal;text-indent:0;text-align:start;text-decoration-line:none;text-decoration-style:solid;text-decoration-color:#000;text-transform:none;block-progression:tb;isolation:auto;mix-blend-mode:normal" d="M 9 16 C 6.8026661 16 5 17.802666 5 20 L 5 34 L 6 34 C 9.325562 34 12 36.674438 12 40 C 12 43.325562 9.325562 46 6 46 L 5 46 L 5 60 C 5 62.197334 6.8026661 64 9 64 L 71 64 C 73.197334 64 75 62.197334 75 60 L 75 46 L 74 46 C 70.674438 46 68 43.325562 68 40 C 68 36.674438 70.674438 34 74 34 L 75 34 L 75 20 C 75 17.802666 73.197334 16 71 16 L 9 16 z M 9 18 L 24 18 A 1 1 0 0 0 25 19 A 1 1 0 0 0 26 18 L 71 18 C 72.116666 18 73 18.883334 73 20 L 73 32.203125 C 69.084606 32.718014 66 35.947865 66 40 C 66 44.052135 69.084606 47.281986 73 47.796875 L 73 60 C 73 61.116666 72.116666 62 71 62 L 26 62 A 1 1 0 0 0 25 61 A 1 1 0 0 0 24 62 L 9 62 C 7.8833339 62 7 61.116666 7 60 L 7 47.796875 C 10.915394 47.281986 14 44.052135 14 40 C 14 35.947865 10.915394 32.718014 7 32.203125 L 7 20 C 7 18.883334 7.8833339 18 9 18 z M 25 21 A 1 1 0 0 0 24 22 A 1 1 0 0 0 25 23 A 1 1 0 0 0 26 22 A 1 1 0 0 0 25 21 z M 25 25 A 1 1 0 0 0 24 26 A 1 1 0 0 0 25 27 A 1 1 0 0 0 26 26 A 1 1 0 0 0 25 25 z M 25 29 A 1 1 0 0 0 24 30 A 1 1 0 0 0 25 31 A 1 1 0 0 0 26 30 A 1 1 0 0 0 25 29 z M 25 33 A 1 1 0 0 0 24 34 A 1 1 0 0 0 25 35 A 1 1 0 0 0 26 34 A 1 1 0 0 0 25 33 z M 25 37 A 1 1 0 0 0 24 38 A 1 1 0 0 0 25 39 A 1 1 0 0 0 26 38 A 1 1 0 0 0 25 37 z M 25 41 A 1 1 0 0 0 24 42 A 1 1 0 0 0 25 43 A 1 1 0 0 0 26 42 A 1 1 0 0 0 25 41 z M 25 45 A 1 1 0 0 0 24 46 A 1 1 0 0 0 25 47 A 1 1 0 0 0 26 46 A 1 1 0 0 0 25 45 z M 25 49 A 1 1 0 0 0 24 50 A 1 1 0 0 0 25 51 A 1 1 0 0 0 26 50 A 1 1 0 0 0 25 49 z M 25 53 A 1 1 0 0 0 24 54 A 1 1 0 0 0 25 55 A 1 1 0 0 0 26 54 A 1 1 0 0 0 25 53 z M 25 57 A 1 1 0 0 0 24 58 A 1 1 0 0 0 25 59 A 1 1 0 0 0 26 58 A 1 1 0 0 0 25 57 z"
        fill="none"
        stroke="white"
        stroke-width="2"
    />
</svg>